<?xml version="1.0" encoding="utf-8"?>
<!-- Generator: Adobe Illustrator 22.0.1, SVG Export Plug-In . SVG Version: 6.00 Build 0)  -->
<svg version="1.1" id="Layer_1" xmlns="http://www.w3.org/2000/svg" xmlns:xlink="http://www.w3.org/1999/xlink" x="0px" y="0px"
	 viewBox="0 0 479 479" style="enable-background:new 0 0 479 479;" xml:space="preserve">
<style type="text/css">
	.st0{fill:#ED2224;}
</style>
<path class="st0" d="M194.4,3.2c-2.1-2.1-5.3-2.9-8.2-1.9L53.1,45.6L13.5,6.1c-3.1-3-8.1-3-11.2,0.1s-3.1,8.1-0.1,11.2l41.1,41.1
	L0.5,187c-1,2.9-0.2,6,1.9,8.2l282.3,282.3c3.1,3.1,8.2,3.1,11.3,0l180.7-180.7c3.1-3.1,3.1-8.2,0-11.3L194.4,3.2z M290.3,460.6
	L17.2,187.4L55.9,71l30.4,30.4c-11.3,17.1-7.8,40,8.1,52.9c15.9,13,39,11.8,53.5-2.7c14.5-14.5,15.7-37.6,2.7-53.5
	s-35.8-19.4-52.9-8.1L65.7,58.2L186.5,18l273.2,273.2L290.3,460.6z M114,129.1c3.1,3,8.1,3,11.2-0.1c3.1-3.1,3.1-8.1,0.1-11.2
	l-15.9-15.9c10.5-5,23.1-1.8,29.9,7.8c6.7,9.5,5.6,22.5-2.6,30.7c-9.5,9-24.4,9-33.9,0c-7.2-7.1-9.1-18.1-4.6-27.2L114,129.1z"/>
<path d="M166.1,302.5l22.6-22.6l124.2,124.2l-22.6,22.6L166.1,302.5z"/>
<path d="M222.6,246l22.6-22.6l124.2,124.2l-22.6,22.6L222.6,246z"/>
<path d="M256.5,212.1l22.6-22.6l124.2,124.2l-22.6,22.6L256.5,212.1z"/>
<path d="M290.3,178.2l11.3-11.3l124.2,124.2l-11.3,11.3L290.3,178.2z"/>
<path d="M200,268.6l11.3-11.3l124.2,124.2l-11.3,11.3L200,268.6z"/>
</svg>
